<svg width="218" height="191" viewBox="0 0 218 191" fill="none" xmlns="http://www.w3.org/2000/svg">
<path d="M214.657 164.478C213.271 162.989 212.719 161.066 213.14 159.201C213.662 156.879 213.897 154.491 213.837 152.105C213.508 139.171 204.458 128 191.676 123.113C195.44 114.301 197.35 105.022 197.35 95.4993C197.35 85.4216 195.216 75.6352 191.011 66.3815C195.126 63.5843 198.125 59.5674 199.312 54.9457C203.086 54.2762 206.361 52.2809 208.393 49.3749C212.109 44.0616 213.992 37.9346 213.839 31.6532C213.674 24.9891 211.204 18.612 206.694 13.2105C205.644 11.9553 203.645 11.692 202.226 12.6175C200.807 13.5459 200.508 15.3146 201.556 16.5682C205.28 21.0266 207.319 26.284 207.454 31.7753C207.58 36.962 206.028 42.0208 202.963 46.4026C202.21 47.4782 201.138 48.3199 199.879 48.8628V34.8505C199.879 29.2489 194.785 24.6816 188.478 24.5815C188.533 24.2931 188.583 24.0018 188.628 23.7075C188.857 22.1611 187.628 20.7412 185.878 20.5366C184.132 20.3321 182.525 21.421 182.296 22.9674C181.33 29.4387 177.478 33.6146 170.522 35.7349C164.634 37.53 158.331 37.2372 155.894 37.0282C154.133 36.8811 152.578 38.0156 152.408 39.5694C152.26 40.9245 153.221 42.1488 154.635 42.5387V48.854C153.359 48.3008 152.27 47.4356 151.502 46.3276C148.593 42.1385 147.056 37.3122 147.056 32.3712C147.056 25.1157 150.286 18.3266 156.154 13.2561C162.02 8.18705 169.77 5.48553 177.983 5.65916C182.733 5.75627 187.274 6.82452 191.482 8.83153C193.034 9.57312 194.971 9.0596 195.808 7.68677C196.644 6.31247 196.066 4.59974 194.514 3.85962C189.483 1.45827 183.818 0.128112 178.133 0.010399C168.187 -0.194128 158.798 3.07241 151.691 9.2141C147.177 13.1163 143.956 17.8601 142.203 23.0527C131.663 19.2639 120.511 17.3378 109 17.3378C97.479 17.3378 86.3205 19.2653 75.7774 23.0601C74.0543 18.0117 70.9408 13.3708 66.6065 9.52898C59.8988 3.58446 51.0239 0.203154 41.6185 0.00892769C31.6775 -0.194128 22.282 3.07241 15.1768 9.2141C8.06822 15.3573 4.15303 23.581 4.15303 32.3697C4.15303 38.3569 6.01749 44.2058 9.54349 49.2837C11.5975 52.2412 14.8924 54.2659 18.6878 54.9427C19.8753 59.5659 22.8741 63.5843 26.9889 66.383C22.7843 75.6367 20.6504 85.4231 20.6504 95.4993C20.6504 105.019 22.5581 114.297 26.3203 123.107C23.4862 124.182 20.7984 125.568 18.3335 127.261C16.9398 128.218 16.687 129.992 17.7681 131.225C18.8491 132.457 20.855 132.68 22.2487 131.724C27.9502 127.812 35.0854 125.837 42.332 126.164C58.0193 126.873 70.5849 138.323 70.9375 152.231C70.989 154.207 70.7944 156.18 70.362 158.096C69.5653 161.629 70.6032 165.263 73.2094 168.068C74.4452 169.397 75.0988 171.011 75.0988 172.737C75.0988 176.795 71.3666 180.097 66.7795 180.097H60.8751C62.4634 177.363 63.3649 174.267 63.3649 170.986V155.329C63.3649 149.725 58.2672 145.158 51.9603 145.059C52.0152 144.77 52.0684 144.48 52.1116 144.185C52.3428 142.639 51.112 141.219 49.364 141.015C47.6143 140.812 46.011 141.899 45.7798 143.445C45.1029 147.979 43.0305 151.341 39.443 153.723C31.3748 159.084 18.4749 157.416 18.3502 157.4C16.6071 157.159 14.9755 158.215 14.7044 159.756C14.4317 161.298 15.6242 162.743 17.3672 162.983C17.4404 162.993 17.7015 163.028 18.1207 163.071V170.986C18.1207 174.267 19.0221 177.363 20.6105 180.097H14.7077C10.119 180.097 6.38672 176.795 6.38672 172.737C6.38672 171.011 7.04036 169.397 8.27612 168.068C10.8657 165.283 11.8919 161.595 11.0919 157.951C10.726 156.281 10.5397 154.565 10.5397 152.849C10.5397 148.631 11.6208 144.593 13.7531 140.848C14.5464 139.455 13.9127 137.755 12.3377 137.054C10.7626 136.352 8.84328 136.912 8.04993 138.306C5.4653 142.846 4.15469 147.739 4.15469 152.849C4.15469 154.925 4.37923 157.003 4.8233 159.028C5.2574 161.013 4.71852 162.999 3.34305 164.479C1.18753 166.797 0 169.731 0 172.737C0 179.911 6.59795 185.747 14.7077 185.747H25.4853C29.5103 189.008 34.8692 191 40.7436 191C46.6181 191 51.9753 189.008 56.0019 185.747H66.7795C74.8893 185.747 81.4872 179.911 81.4872 172.737C81.4872 171.698 81.3425 170.669 81.0681 169.67C90.0344 172.317 99.3983 173.661 109 173.661C118.603 173.661 127.967 172.317 136.932 169.67C136.659 170.669 136.513 171.698 136.513 172.737C136.513 179.911 143.111 185.747 151.221 185.747H161.998C166.023 189.008 171.382 191 177.256 191C183.131 191 188.488 189.008 192.515 185.747H203.292C211.402 185.747 218 179.911 218 172.737C218 169.729 216.812 166.797 214.657 164.478ZM24.5074 170.986V163.296C29.9078 163.162 37.3623 162.159 43.2501 158.261C46.2688 156.263 48.5474 153.732 50.0792 150.704H51.7524C54.6347 150.704 56.9798 152.779 56.9798 155.329V170.986C56.9798 178.906 49.6967 185.35 40.7436 185.35C31.7906 185.35 24.5074 178.906 24.5074 170.986ZM172.601 41.0761C179.252 39.05 183.989 35.3508 186.589 30.2274H188.265C191.148 30.2274 193.493 32.3006 193.493 34.8505V50.5079C193.493 58.4285 186.209 64.8718 177.256 64.8718C168.303 64.8718 161.02 58.4285 161.02 50.5079V42.8153C164.375 42.73 168.541 42.3136 172.601 41.0761ZM14.9855 46.3276C12.0766 42.1385 10.5397 37.3122 10.5397 32.3712C10.5397 25.1157 13.7714 18.3266 19.6392 13.2561C25.5053 8.18558 33.2492 5.48406 41.4688 5.65769C49.2243 5.81807 56.5457 8.61082 62.0859 13.5209C67.626 18.431 70.7712 24.9141 70.9391 31.7753C71.0672 36.962 69.5138 42.0193 66.4485 46.4026C65.6934 47.4797 64.6239 48.3243 63.3666 48.8658V34.8505C63.3666 29.2489 58.2705 24.6816 51.9653 24.5815C52.0185 24.2931 52.0684 24.0018 52.1133 23.7075C52.3428 22.1611 51.1137 20.7412 49.364 20.5366C47.6176 20.3321 46.011 21.421 45.7815 22.9674C44.8151 29.4387 40.9648 33.6146 34.0076 35.7349C28.1199 37.53 21.8163 37.2372 19.3797 37.0282C17.62 36.8811 16.0633 38.0156 15.8936 39.5694C15.7456 40.9245 16.7069 42.1488 18.1207 42.5387V48.8555C16.845 48.3022 15.7556 47.4356 14.9855 46.3276ZM24.5074 50.5079V42.8153C27.8604 42.73 32.0284 42.3136 36.0883 41.0761C42.7395 39.05 47.4763 35.3508 50.0759 30.2274H51.7524C54.6347 30.2274 56.9782 32.3006 56.9782 34.8505V50.5079C56.9782 58.4285 49.695 64.8718 40.7436 64.8718C31.7906 64.8718 24.5074 58.4285 24.5074 50.5079ZM76.7837 162.193C76.4643 161.229 76.3995 160.208 76.6257 159.201C77.1496 156.881 77.3841 154.493 77.3242 152.105C76.8951 135.253 61.6684 121.38 42.658 120.521C39.1819 120.365 35.7307 120.652 32.396 121.342C28.84 113.103 27.0371 104.418 27.0371 95.4993C27.0371 86.4001 28.9132 77.5569 32.6072 69.1772C35.1336 70.0424 37.8762 70.522 40.7436 70.522C51.4946 70.522 60.5108 63.8507 62.7994 54.9442C66.5732 54.2762 69.8431 52.2853 71.8789 49.3749C75.5961 44.0616 77.4789 37.9332 77.3242 31.6532C77.3009 30.657 77.2211 29.6697 77.0947 28.6912C87.1904 24.9082 97.9147 22.988 109 22.988C120.085 22.988 130.81 24.9082 140.907 28.6912C140.752 29.9037 140.666 31.1308 140.666 32.3697C140.666 38.3569 142.53 44.2043 146.058 49.2837C148.109 52.2383 151.405 54.2659 155.201 54.9442C157.489 63.8507 166.505 70.522 177.256 70.522C180.124 70.522 182.865 70.0424 185.391 69.1786C189.087 77.5554 190.963 86.3971 190.963 95.4993C190.963 104.415 189.162 113.099 185.607 121.336C183.523 120.902 181.374 120.621 179.172 120.521C169.027 120.063 159.397 123.209 152.057 129.379C144.712 135.553 140.667 143.888 140.667 152.848C140.667 154.924 140.892 157.003 141.336 159.028C141.574 160.114 141.511 161.198 141.188 162.201C131.004 166.054 120.18 168.011 109 168.011C97.8133 168.011 86.9758 166.052 76.7837 162.193ZM177.256 185.35C168.303 185.35 161.02 178.906 161.02 170.986V163.296C166.421 163.162 173.875 162.159 179.763 158.261C182.782 156.263 185.062 153.732 186.594 150.704H188.265C191.148 150.704 193.493 152.779 193.493 155.329V170.986C193.493 178.906 186.209 185.35 177.256 185.35ZM203.292 180.097H197.388C198.976 177.363 199.879 174.267 199.879 170.986V155.329C199.879 149.725 194.782 145.158 188.475 145.059C188.53 144.77 188.583 144.48 188.626 144.185C188.857 142.639 187.626 141.219 185.878 141.015C184.132 140.812 182.525 141.899 182.294 143.445C181.617 147.979 179.545 151.341 175.957 153.723C167.889 159.084 154.989 157.416 154.865 157.4C153.122 157.159 151.49 158.215 151.219 159.756C150.946 161.298 152.139 162.743 153.882 162.983C153.955 162.993 154.216 163.028 154.635 163.071V170.986C154.635 174.267 155.537 177.363 157.125 180.097H151.221C146.633 180.097 142.901 176.795 142.901 172.737C142.901 171.011 143.553 169.397 144.791 168.067C147.379 165.283 148.405 161.595 147.606 157.951C147.24 156.281 147.054 154.563 147.054 152.848C147.054 145.452 150.394 138.572 156.456 133.475C162.515 128.381 170.469 125.785 178.846 126.164C194.534 126.873 207.099 138.323 207.452 152.231C207.503 154.206 207.309 156.179 206.876 158.096C206.08 161.628 207.118 165.262 209.724 168.067C210.96 169.397 211.613 171.011 211.613 172.735C211.613 176.795 207.881 180.097 203.292 180.097Z" fill="#C4C4C4"/>
<path d="M145 122.772V98.7579C145 95.2423 142.218 92.3829 138.798 92.3829H124.013V75.3736C124.013 71.8593 121.231 69 117.811 69H81.2015C77.7815 69 75 71.8593 75 75.3736V96.044C75 99.5597 77.7815 102.419 81.2015 102.419H89.4801V122.772C89.4801 126.288 92.2616 129.147 95.6816 129.147H100.599C102.029 129.147 103.186 127.958 103.186 126.489C103.186 125.021 102.029 123.83 100.599 123.83H95.6816C95.1131 123.83 94.6525 123.357 94.6525 122.772V102.419H94.9084L101.502 108.649C102.682 109.763 104.159 110.343 105.671 110.343C106.515 110.343 107.372 110.162 108.192 109.791C110.48 108.759 111.899 106.523 111.899 103.955V102.419H117.811C120.673 102.419 123.082 100.414 123.793 97.7H138.798C139.367 97.7 139.828 98.175 139.828 98.7579V122.772C139.828 123.357 139.367 123.83 138.798 123.83H131.577C130.932 123.83 130.311 124.078 129.834 124.524L123.574 130.395C123.143 130.799 122.694 130.684 122.465 130.58C122.235 130.477 121.851 130.212 121.851 129.613V126.489C121.851 125.021 120.694 123.83 119.265 123.83H112.504C111.076 123.83 109.918 125.021 109.918 126.489C109.918 127.956 111.076 129.147 112.504 129.147H116.678V129.613C116.678 132.176 118.095 134.41 120.376 135.445C121.199 135.817 122.057 136.001 122.905 136C124.41 136 125.881 135.427 127.058 134.323L132.579 129.147H138.798C142.218 129.147 145 126.288 145 122.772ZM118.84 96.044C118.84 96.6283 118.38 97.1019 117.811 97.1019H109.313C107.885 97.1019 106.727 98.2927 106.727 99.7604V103.955C106.727 104.556 106.342 104.82 106.113 104.924C105.882 105.028 105.432 105.141 105.003 104.734L97.667 97.8039C97.1888 97.3525 96.5652 97.1019 95.9159 97.1019H81.2015C80.6344 97.1019 80.1724 96.6283 80.1724 96.044V75.3736C80.1724 74.7907 80.6344 74.3171 81.2015 74.3171H117.812C118.38 74.3171 118.842 74.7907 118.842 75.3736V96.044H118.84Z" fill="#C4C4C4"/>
<path d="M126.276 111H112.724C111.219 111 110 111.895 110 113C110 114.104 111.219 115 112.724 115H126.276C127.781 115 129 114.104 129 113C129 111.895 127.781 111 126.276 111Z" fill="#C4C4C4"/>
<path d="M107.014 89C108.663 89 110 87.8802 110 86.5C110 85.1198 108.663 84 107.014 84H92.9855C91.3373 84 90 85.1198 90 86.5C90 87.8802 91.3373 89 92.9855 89H107.014Z" fill="#C4C4C4"/>
</svg>
