<svg width="225" height="224" viewBox="0 0 225 224" fill="none" xmlns="http://www.w3.org/2000/svg">
<path d="M214.422 139.5H182.781C181.849 139.5 180.955 139.869 180.295 140.525C179.636 141.182 179.266 142.072 179.266 143V146.5H173.09C163.114 146.472 153.501 150.227 146.207 157.003L133.564 157H133.562C131.974 156.997 130.405 157.354 128.974 158.042C128.177 157.755 127.361 157.525 126.531 157.355V59.8261L131.004 50.9199C133.243 51.6365 135.58 52.0009 137.931 52H174.277L159.21 94H151.141C150.208 94 149.314 94.3688 148.655 95.0251C147.995 95.6815 147.625 96.5717 147.625 97.5V101C147.625 109.354 150.959 117.366 156.892 123.274C162.826 129.181 170.874 132.5 179.266 132.5C187.657 132.5 195.705 129.181 201.639 123.274C207.573 117.366 210.906 109.354 210.906 101V97.5C210.906 96.5717 210.536 95.6815 209.877 95.0251C209.217 94.3688 208.323 94 207.391 94H199.321L184.255 52H200.359C201.292 52 202.186 51.6312 202.845 50.9749C203.505 50.3185 203.875 49.4283 203.875 48.5V38C203.875 37.1073 203.532 36.2484 202.917 35.5989C202.302 34.9494 201.461 34.5584 200.566 34.506L146.615 31.3465C143.729 31.1786 141.005 29.9608 138.961 27.9247C135.482 24.4612 131.352 21.7137 126.806 19.8393C122.261 17.9648 117.389 17 112.469 17C107.549 17 102.677 17.9647 98.1317 19.8391C93.5862 21.7136 89.4561 24.461 85.9771 27.9245C83.9331 29.9607 81.209 31.1785 78.3223 31.3465L24.3717 34.506C23.4766 34.5584 22.6354 34.9494 22.0203 35.5989C21.4051 36.2484 21.0625 37.1073 21.0625 38V48.5C21.0625 49.4283 21.4329 50.3185 22.0922 50.9749C22.7515 51.6312 23.6457 52 24.5781 52H40.6831L25.616 94H17.5469C16.6145 94 15.7203 94.3688 15.061 95.0251C14.4017 95.6815 14.0313 96.5717 14.0312 97.5V101C14.0312 109.354 17.3648 117.366 23.2986 123.274C29.2323 129.181 37.2803 132.5 45.6719 132.5C54.0635 132.5 62.1114 129.181 68.0452 123.274C73.9789 117.366 77.3125 109.354 77.3125 101V97.5C77.3125 96.5717 76.9421 95.6815 76.2828 95.0251C75.6235 94.3688 74.7293 94 73.7969 94H65.7277L50.6607 52H87.0062C89.3576 52.0009 91.6948 51.6366 93.9333 50.92L98.4062 59.8261V157.352C95.1751 158.016 92.1956 159.568 89.8063 161.833C87.4171 164.098 85.7139 166.985 84.8904 170.165C78.0357 163.767 70.1093 158.611 61.4699 154.933L52.7031 151.192V146.5C52.7031 145.572 52.3327 144.682 51.6734 144.025C51.0141 143.369 50.1199 143 49.1875 143H10.5156C9.58323 143 8.68902 143.369 8.02971 144.025C7.37041 144.682 7.00001 145.572 7 146.5V188.5C7.00001 189.428 7.37041 190.318 8.02971 190.975C8.68902 191.631 9.58323 192 10.5156 192H49.1875C50.1042 192.001 50.9846 191.644 51.6398 191.005C55.5947 195.706 60.5376 199.485 66.1198 202.076C71.702 204.667 77.7873 206.006 83.9464 206H119.5C121.187 206.001 122.85 205.598 124.349 204.826C125.848 204.054 127.139 202.935 128.113 201.563C129.087 200.191 129.716 198.607 129.947 196.943C130.179 195.279 130.005 193.584 129.442 192H144.109C155.87 191.975 167.331 188.305 176.901 181.5H179.266V185C179.266 185.928 179.636 186.818 180.295 187.475C180.955 188.131 181.849 188.5 182.781 188.5H214.422C215.354 188.5 216.248 188.131 216.908 187.475C217.567 186.818 217.937 185.928 217.938 185V143C217.937 142.072 217.567 141.182 216.908 140.525C216.248 139.869 215.354 139.5 214.422 139.5ZM45.6719 185H14.0312V150H45.6719V185ZM203.875 101C203.875 107.498 201.282 113.729 196.667 118.324C192.052 122.919 185.792 125.5 179.266 125.5C172.739 125.5 166.479 122.919 161.864 118.324C157.249 113.729 154.656 107.498 154.656 101H203.875ZM191.855 94H166.676L179.266 58.9066L191.855 94ZM70.2812 101C70.2812 107.498 67.6885 113.729 63.0733 118.324C58.4582 122.919 52.1987 125.5 45.6719 125.5C39.1451 125.5 32.8856 122.919 28.2704 118.324C23.6553 113.729 21.0625 107.498 21.0625 101H70.2812ZM58.2612 94H33.0825L45.6719 58.9066L58.2612 94ZM97.9801 40.4748C96.5423 41.9139 94.8321 43.0549 92.9484 43.8316C91.0648 44.6084 89.0451 45.0055 87.0062 45H28.0938V41.3003L78.7351 38.3345C83.341 38.0665 87.6876 36.1234 90.9489 32.8743C93.7749 30.0608 97.1299 27.829 100.822 26.3063C104.515 24.7837 108.472 24 112.469 24C116.466 24 120.423 24.7837 124.116 26.3064C127.808 27.8291 131.163 30.061 133.989 32.8745C137.25 36.1235 141.597 38.0666 146.202 38.3345L196.844 41.3003V45H137.931C135.893 45.0055 133.873 44.6084 131.989 43.8317C130.106 43.0549 128.396 41.914 126.958 40.4748L126.957 40.4746C123.115 36.6491 117.903 34.5 112.469 34.5C107.034 34.5 101.823 36.6492 97.9801 40.4748H97.9801ZM104.095 55.5L100.204 47.7538C101.18 47.0508 102.099 46.272 102.951 45.4247C105.476 42.9117 108.899 41.5 112.469 41.5C116.038 41.5 119.462 42.9117 121.986 45.4247C121.986 45.4247 123.767 47.0562 124.733 47.7538L120.843 55.5H104.095ZM119.5 62.5V157H105.438V62.5H119.5ZM101.922 164H123.016C123.213 164 123.411 164.008 123.608 164.019C122.814 166.28 122.818 168.742 123.621 171H91.9775C92.7069 168.954 94.0542 167.183 95.8346 165.93C97.615 164.677 99.7414 164.003 101.922 164ZM119.5 199H83.9464C78.1575 199.006 72.457 197.586 67.3532 194.867C62.2493 192.147 57.9006 188.213 54.6948 183.414L52.7031 180.44V158.808L58.7001 161.367C67.3507 165.049 75.212 170.348 81.8581 176.977C82.1845 177.302 82.5721 177.56 82.9987 177.736C83.4252 177.912 83.8825 178.003 84.3442 178.003H84.345L98.4054 178C99.3378 178 100.232 178.368 100.892 179.024C101.551 179.681 101.922 180.571 101.922 181.499C101.922 182.427 101.552 183.318 100.893 183.974C100.234 184.631 99.3399 185 98.4075 185H80.8281V192L119.5 192C119.962 192 120.42 192.09 120.847 192.266C121.274 192.441 121.662 192.699 121.988 193.024C122.315 193.349 122.575 193.735 122.751 194.16C122.928 194.585 123.019 195.04 123.019 195.5C123.019 195.96 122.928 196.415 122.751 196.84C122.575 197.265 122.315 197.651 121.988 197.976C121.662 198.301 121.274 198.559 120.847 198.735C120.42 198.91 119.962 199.001 119.5 199ZM179.266 174.5H175.75C174.989 174.5 174.249 174.746 173.641 175.2C165.111 181.542 154.755 184.978 144.109 185H112.469C112.007 185.001 111.549 184.91 111.122 184.735C110.695 184.559 110.307 184.301 109.98 183.976C109.654 183.651 109.394 183.265 109.217 182.84C109.04 182.415 108.949 181.96 108.949 181.5C108.949 181.04 109.04 180.585 109.217 180.16C109.394 179.735 109.654 179.349 109.98 179.024C110.307 178.699 110.695 178.441 111.122 178.266C111.549 178.09 112.007 178 112.469 178L137.077 178.001V178H151.141V171H133.562C133.1 171 132.643 170.909 132.216 170.733C131.79 170.557 131.402 170.3 131.076 169.975C130.417 169.318 130.046 168.428 130.046 167.5C130.047 166.571 130.417 165.681 131.076 165.025C131.736 164.369 132.63 164 133.562 164H133.563L147.624 164.003H147.625C148.086 164.003 148.544 163.912 148.97 163.736C149.397 163.56 149.784 163.302 150.111 162.977C153.121 159.963 156.702 157.574 160.647 155.947C164.591 154.32 168.82 153.488 173.09 153.5H179.266V174.5ZM210.906 181.5H186.297V146.5H210.906V181.5Z" fill="#C4C4C4"/>
</svg>
