<svg width="100" height="100" viewBox="0 0 100 100" fill="none" xmlns="http://www.w3.org/2000/svg">
<g clip-path="url(#clip0)">
<path d="M99.2574 0.742574C98.7624 0.247525 98.0198 0 97.2772 0L61.8812 4.9505C61.3862 4.9505 60.8911 5.19802 60.396 5.69307L38.8614 27.2277L23.5149 25.2475C22.7723 25.2475 22.0297 25.4951 21.5347 25.9901L1.73269 45.7921C1.23764 46.2871 0.990112 46.7822 0.990112 47.5248C0.990112 48.2673 1.23764 48.7624 1.73269 49.2574L16.8317 64.1089C17.3267 64.604 18.0693 64.8515 18.5644 64.8515C19.0594 64.8515 19.802 64.604 20.297 64.1089L28.2178 56.1881L43.5644 71.5347L35.6436 79.4554C34.6535 80.4455 34.6535 81.9307 35.6436 82.9208L50.7426 98.0198C51.2376 98.5149 51.7327 98.7624 52.4753 98.7624C53.2178 98.7624 53.7129 98.5149 54.2079 98.0198L74.0099 78.2178C74.505 77.7228 74.7525 76.9802 74.7525 76.2376L72.7723 61.1386L94.3069 39.604C94.802 39.1089 95.0495 38.6139 95.0495 38.1188L100 2.72277C100 1.9802 99.7525 1.23762 99.2574 0.742574ZM18.5644 59.1584L6.93071 47.5248L24.2574 30.198L34.406 31.6832L24.505 41.5842C21.5347 44.5545 21.5347 49.7525 24.505 52.7228L24.7525 52.9703L18.5644 59.1584ZM52.4753 92.8218L40.8416 81.1881L47.0297 75L47.2772 75.2475C48.7624 76.7327 50.7426 77.4753 52.9703 77.4753C55.198 77.4753 57.1782 76.7327 58.6634 75.2475L68.3168 65.5941L69.5545 75.7426L52.4753 92.8218ZM90.3465 36.8812L54.9505 72.0297C53.7129 73.0198 51.9802 73.0198 50.7426 72.0297L27.9703 49.2574C26.7327 48.0198 26.7327 46.2871 27.9703 45.0495L63.3663 9.90099L80.9406 7.42574L92.8218 19.3069L90.3465 36.8812ZM93.5644 13.1188L86.8812 6.43564L94.5545 5.44554L93.5644 13.1188Z" fill="#A5C138"/>
<path d="M27.4752 72.7723C26.4851 71.7822 25 71.7822 24.0099 72.7723L6.93068 89.604C5.94059 90.5941 5.94059 92.0792 6.93068 93.0693C7.42573 93.5644 8.16831 93.8119 8.66336 93.8119C9.15841 93.8119 9.90098 93.5644 10.396 93.0693L27.2277 76.2376C28.2178 75.2475 28.2178 73.7624 27.4752 72.7723Z" fill="#A5C138"/>
<path d="M13.3663 67.8218C12.3762 66.8317 10.8911 66.8317 9.90099 67.8218L0.742574 76.9802C-0.247525 77.9703 -0.247525 79.4554 0.742574 80.4455C1.23762 80.9406 1.9802 81.1881 2.47525 81.1881C3.21782 81.1881 3.71287 80.9406 4.20792 80.4455L13.3663 71.2871C14.3564 70.297 14.3564 68.8119 13.3663 67.8218Z" fill="#A5C138"/>
<path d="M32.1782 86.6337C31.1881 85.6436 29.703 85.6436 28.7129 86.6337L19.5545 95.7921C18.5644 96.7822 18.5644 98.2673 19.5545 99.2574C20.0495 99.7525 20.5446 100 21.2871 100C22.0297 100 22.5248 99.7525 23.0198 99.2574L32.1782 90.099C33.1683 89.1089 33.1683 87.6238 32.1782 86.6337Z" fill="#A5C138"/>
<path d="M71.0396 28.9604C66.5841 24.5049 59.4059 24.5049 54.9505 28.9604C52.7228 31.1881 51.7327 33.9109 51.7327 36.8812C51.7327 39.8515 52.9703 42.8218 54.9505 44.802C57.4257 47.0297 60.1485 48.2673 63.1188 48.2673C66.0891 48.2673 69.0594 47.0297 71.0396 45.0495C75.495 40.5941 75.495 33.4158 71.0396 28.9604ZM67.5742 41.5842C65.099 44.0594 60.8911 44.0594 58.4158 41.5842C57.1782 40.3465 56.4356 38.8614 56.4356 37.1287C56.4356 35.396 57.4257 33.4158 58.6634 32.4257C59.901 31.1881 61.6337 30.4455 63.1188 30.4455C64.6039 30.4455 66.3366 31.1881 67.5742 32.4257C70.0495 34.901 70.0495 39.1089 67.5742 41.5842Z" fill="#A5C138"/>
</g>
<defs>
<clipPath id="clip0">
<rect width="100" height="100" fill="white"/>
</clipPath>
</defs>
</svg>
