<svg width="220" height="194" viewBox="0 0 220 194" fill="none" xmlns="http://www.w3.org/2000/svg">
<g clip-path="url(#clip0)">
<path d="M215 152.273H210V78.0911H200V152.273H20.0002V45.6364C20.0002 37.9547 26.716 31.7273 35.0002 31.7273H110V22.4547H35.0002C21.1997 22.4699 10.0167 32.8396 9.99985 45.6364V152.273H5.00016C2.23875 152.273 0 154.349 0 156.909V170.818C0 175.939 4.47703 180.091 9.99985 180.091H210C215.523 180.091 220 175.939 220 170.818V156.909C220 154.349 217.762 152.273 215 152.273ZM210 170.818H9.99985V161.546H90.0001C90.0001 164.106 92.2388 166.182 95.0002 166.182H125C127.762 166.182 130 164.106 130 161.546H210V170.818Z" fill="#C4C4C4"/>
<path d="M180 78.0911V133.728H39.9999V50.2729H110V41.0003H34.9997C32.2388 40.9999 30 43.0758 30 45.6364V138.364C30 140.924 32.2388 143 35.0002 143H185C187.762 143 190 140.924 190 138.364V78.0911H180Z" fill="#C4C4C4"/>
<path d="M205 3.90906H135C126.716 3.90906 120 10.1364 120 17.8182V54.909C120 62.5907 126.716 68.8181 135 68.8181H140V82.7272C140 84.7235 141.377 86.4961 143.42 87.1272C143.93 87.2828 144.463 87.3624 145 87.3637C146.574 87.3637 148.056 86.6765 149 85.509L162.5 68.8181H205C213.285 68.8181 220 62.5907 220 54.909V17.8182C220 10.1364 213.284 3.90906 205 3.90906ZM210 54.909C210 57.4695 207.761 59.5455 205 59.5455H160C158.426 59.5455 156.944 60.2327 156 61.4002L150 68.8181V64.1815C150 61.621 147.761 59.545 145 59.545H135C132.239 59.545 130 57.4691 130 54.9085V17.8182C130 15.2576 132.239 13.1816 135 13.1816H205C207.761 13.1816 210 15.2576 210 17.8182V54.909Z" fill="#C4C4C4"/>
<path d="M150 17.8182H140V27.0908H150V17.8182Z" fill="#C4C4C4"/>
<path d="M200 17.8182H160V27.0908H200V17.8182Z" fill="#C4C4C4"/>
<path d="M200 31.7273H140V40.9999H200V31.7273Z" fill="#C4C4C4"/>
<path d="M170 45.6364H140V54.909H170V45.6364Z" fill="#C4C4C4"/>
<path d="M200 45.6364H180V54.909H200V45.6364Z" fill="#C4C4C4"/>
<path d="M90.0001 87.3637H80.0002V96.6363H90.0001V87.3637Z" fill="#C4C4C4"/>
<path d="M115 87.3637H105V96.6363H115V87.3637Z" fill="#C4C4C4"/>
<path d="M140 87.3637H130V96.6363H140V87.3637Z" fill="#C4C4C4"/>
</g>
<defs>
<clipPath id="clip0">
<rect y="-10" width="220" height="204" fill="white"/>
</clipPath>
</defs>
</svg>
