<svg width="216" height="256" viewBox="0 0 216 256" fill="none" xmlns="http://www.w3.org/2000/svg">
<path d="M215.174 91.5706C214.321 90.5321 212.932 89.9426 211.491 90.0111L205.631 90.2751V41.4268C205.631 39.3208 203.71 37.6128 201.34 37.6128H189.436C187.067 37.6128 185.145 39.3203 185.145 41.4268V91.1966L184.436 91.2286H184.436L143.273 92.8061L127.081 79.0117C127.963 73.8957 126.611 68.7507 123.237 64.4767C122.451 63.4807 121.573 62.5642 120.622 61.7252L122.555 49.7013C125.671 49.5178 128.605 48.4053 130.932 46.4803C133.606 44.2678 135.151 41.2703 135.282 38.0408L136.292 13.0834C136.423 9.85342 135.124 6.76543 132.634 4.38744C130.145 2.00995 126.774 0.636951 123.14 0.520952L107.109 0.00745362C99.5729 -0.227046 93.2462 5.01143 92.9756 11.6979L91.9659 36.6553C91.8348 39.8853 93.1342 42.9733 95.6234 45.3513C96.0324 45.7418 96.4672 46.1023 96.9211 46.4378L95.341 54.1568L90.0078 53.3258C89.6039 53.2628 89.2022 53.2303 88.8023 53.2123L91.58 39.1248C92.0306 36.8408 91.4495 34.5328 89.9448 32.6273C88.44 30.7213 86.1961 29.4518 83.626 29.0513L61.5358 25.6104C56.2177 24.7794 51.1342 27.9529 50.2027 32.6793L48.9123 39.2273L41.0825 37.4878C39.931 37.2313 38.7121 37.4113 37.7164 37.9833C36.7196 38.5548 36.0333 39.4678 35.8213 40.5048L27.424 81.4932C27.0161 83.4831 28.4264 85.4091 30.6382 85.8836L39.346 87.7531L36.5537 101.916C35.6216 106.642 39.1896 111.161 44.5072 111.989L66.5973 115.43C67.0012 115.493 67.4029 115.525 67.8028 115.543L64.5081 132.254L50.7995 173.96L12.538 206.531C12.5228 206.544 12.5093 206.559 12.4941 206.572C12.4879 206.578 12.4806 206.583 12.4733 206.589L1.33201 216.492C-0.343742 217.981 -0.343742 220.396 1.33201 221.885L31.46 248.665C32.265 249.38 33.3557 249.782 34.4937 249.782C34.496 249.782 34.4988 249.782 34.5016 249.782C35.6424 249.78 36.7348 249.374 37.5386 248.655L40.9053 245.64C44.8565 242.102 45.2109 236.486 41.7289 232.577L34.9359 224.952L74.3545 190.975C74.3708 190.961 74.3866 190.947 74.4017 190.933C74.9845 190.415 75.5155 189.852 76.0212 189.217C77.3674 187.744 78.3265 186.081 78.8637 184.298L89.8559 148.995L112.219 184.086V234.519V248.525C112.219 250.631 114.14 252.339 116.51 252.339H159.118C160.259 252.339 161.353 251.935 162.158 251.216C162.963 250.498 163.413 249.524 163.409 248.511L163.391 244.263C163.37 239.277 159.153 235.084 153.582 234.509L142.389 233.353V181.185C142.389 180.453 142.317 179.722 142.169 178.953C141.949 177.066 141.303 175.286 140.265 173.688L115.95 135.535L121.174 109.034L130.574 117.389C131.086 117.844 131.714 118.172 132.395 118.351C132.859 118.503 133.36 118.586 133.88 118.586C133.942 118.586 134.005 118.585 134.068 118.583L185.146 116.626V252.186C185.146 254.292 187.067 256 189.437 256H201.341C203.711 256 205.632 254.293 205.632 252.186V115.852C206.64 115.44 207.455 114.696 207.861 113.736L215.725 95.1636C216.235 93.9596 216.028 92.6091 215.174 91.5706ZM101.552 11.9719C101.65 9.54342 103.904 7.62693 106.617 7.62693C106.678 7.62693 106.74 7.62793 106.801 7.62993L122.834 8.14242C124.054 8.18142 125.196 8.61142 126.091 9.35442C119.174 16.0394 107.765 19.3664 101.195 20.8074L101.552 11.9719ZM100.874 28.7128C106.661 27.6144 118.31 24.7694 127.487 18.4919L126.707 37.7658C126.659 38.9593 126.083 40.0708 125.087 40.8958C124.09 41.7203 122.793 42.1478 121.459 42.1078L105.426 41.5958C104.887 41.5783 104.364 41.4823 103.871 41.3208C103.621 41.1873 103.354 41.0758 103.071 40.9888C102.645 40.7673 102.252 40.4873 101.905 40.1558C100.976 39.2693 100.493 38.1243 100.541 36.9303L100.874 28.7128ZM113.92 49.4993L112.681 57.2022C111.398 56.7777 110.064 56.4502 108.687 56.2357L103.792 55.4737L105.073 49.2163C105.088 49.2168 105.102 49.2183 105.117 49.2188L113.92 49.4993ZM40.8294 80.2247L36.5919 79.3157L43.4429 45.8748L47.4272 46.7603L40.8294 80.2247ZM45.9877 104.476C45.3425 104.376 44.8919 103.806 45.0055 103.232L58.6557 33.9963C58.7687 33.4228 59.41 33.0238 60.0558 33.1233L82.146 36.5643C82.7912 36.6643 83.2418 37.2343 83.1281 37.8083L73.1254 88.5441L69.478 107.045C69.3649 107.618 68.7248 108.017 68.0785 107.917L45.9877 104.476ZM35.0011 237.312C35.7886 238.197 35.7088 239.466 34.8149 240.267L34.4819 240.565L10.433 219.188L15.1335 215.01L25.7887 226.971C25.7915 226.975 25.7949 226.978 25.7977 226.981L35.0011 237.312ZM70.5851 182.293C70.3465 183.085 69.9162 183.817 69.307 184.467C69.2243 184.555 69.1456 184.647 69.0724 184.741C68.8367 185.044 68.6016 185.301 68.3535 185.523L29.5824 218.942L21.2947 209.638L57.5638 178.764C58.1067 178.302 58.5038 177.72 58.7147 177.079L71.7354 137.467L83.698 139.33L83.8763 139.609L70.5851 182.293ZM152.591 242.083C153.852 242.213 154.806 243.162 154.81 244.29L154.812 244.709H120.801V238.8L152.591 242.083ZM135.407 110.897L95.5953 75.5102C93.9195 74.0207 91.2025 74.0207 89.5279 75.5102C87.8522 76.9997 87.8522 79.4147 89.5279 80.9032L113.763 102.445L107.233 135.565C107.062 136.436 107.236 137.334 107.726 138.103L132.817 177.474C133.279 178.185 133.556 178.972 133.642 179.815C133.654 179.929 133.671 180.043 133.694 180.155C133.771 180.527 133.808 180.865 133.808 181.185V232.464L120.802 231.121V183.08C120.802 182.421 120.61 181.774 120.244 181.2L92.2207 137.228C92.219 137.225 92.2173 137.222 92.2151 137.219L90.5022 134.532C90.4606 134.466 90.4263 134.399 90.3897 134.331L90.3171 134.2C89.7113 133.11 88.5576 132.342 87.2109 132.132L73.6598 130.021L87.1271 61.7112C87.2402 61.1377 87.8803 60.7397 88.5266 60.8382L97.631 62.2562C97.7604 62.2882 97.892 62.3167 98.0271 62.3387C98.1784 62.3632 98.3286 62.3777 98.4782 62.3882L107.207 63.7482C110.864 64.3177 114.062 66.1322 116.214 68.8577C116.715 69.4917 117.141 70.1572 117.496 70.8447L112.064 66.2172C110.354 64.7597 107.637 64.8112 105.998 66.3317C104.359 67.8522 104.416 70.2667 106.127 71.7237L138.66 99.4391C139.505 100.159 140.648 100.539 141.814 100.496L180.521 99.0126L181.012 109.148L135.407 110.897ZM193.728 45.2403H197.05V90.5511H193.728V45.2403ZM197.05 248.372H193.728V116.609H197.05V248.372ZM200.849 108.643L189.588 108.89L189.091 98.6561L199.704 98.1786H201.341C201.706 98.1786 202.058 98.1341 202.397 98.0576L205.387 97.9231L200.849 108.643Z" fill="#C4C4C4"/>
</svg>
