<svg width="538" height="576" viewBox="0 0 538 576" fill="none" xmlns="http://www.w3.org/2000/svg">
<path fill-rule="evenodd" clip-rule="evenodd" d="M405.276 91.9545C373.052 92.2287 341.221 99.0334 311.9 112.012C312.217 112.074 312.534 112.137 312.851 112.201L312.893 112.21L312.938 112.219C313.59 112.352 314.243 112.489 314.895 112.63L314.9 112.631C315.221 112.701 315.542 112.771 315.863 112.843L315.931 112.858C316.248 112.929 316.564 113.001 316.881 113.074L316.907 113.079L317.822 113.293L317.896 113.31L317.957 113.325L317.965 113.327L318.846 113.538L318.894 113.55L318.913 113.555L318.932 113.559L319.867 113.79L319.892 113.797L319.903 113.799C320.209 113.876 320.515 113.954 320.82 114.032L320.888 114.049L320.937 114.062C321.582 114.229 322.226 114.399 322.87 114.573L322.886 114.578C323.207 114.665 323.527 114.753 323.848 114.842L323.871 114.848L323.992 114.882L324.847 115.123L324.863 115.127L324.942 115.15L325.781 115.392L325.855 115.413L325.891 115.424L325.929 115.435L326.838 115.704L326.845 115.706C327.158 115.8 327.472 115.894 327.785 115.99L327.834 116.005L327.847 116.009L328.73 116.282L328.822 116.311L328.865 116.325C329.476 116.516 330.086 116.711 330.694 116.91L330.883 116.972C345.624 121.807 359.94 128.877 373.341 138.261C391.677 151.099 406.526 167.027 417.656 184.799C419.943 154.437 415.95 123.193 405.276 91.9545ZM278.999 269.745C302.3 286.06 334.277 280.596 350.421 257.54C366.565 234.484 360.763 202.567 337.462 186.251C314.161 169.935 282.184 175.4 266.04 198.456C249.895 221.512 255.698 253.429 278.999 269.745ZM259.226 297.984C242.818 286.495 220.716 289.752 209.859 305.257C199.002 320.763 203.501 342.646 219.908 354.135C236.316 365.623 258.418 362.367 269.275 346.861C280.132 331.356 275.633 309.473 259.226 297.984ZM303.252 116.051C269.779 132.553 239.982 157.348 217.194 189.893C179.546 243.659 88.0713 393.349 159.264 440.43C234.107 489.924 337.665 354.079 375.338 300.276C398.282 267.509 412.341 231.53 416.766 194.047C405.391 174.552 389.658 157.09 369.863 143.229C349.232 128.783 326.434 119.821 303.252 116.051Z" fill="#9AC400"/>
<path fill-rule="evenodd" clip-rule="evenodd" d="M3.13251 392.651C13.8643 353.323 95.35 295.015 149.49 285.382L125.682 375.042C68.9137 380.692 30.7084 385.479 3.13251 392.651Z" fill="#9AC400"/>
<path fill-rule="evenodd" clip-rule="evenodd" d="M260.911 573.149C294.196 549.613 321.118 453.099 311.653 398.93L235.543 451.967C249.65 507.245 258.218 544.783 260.911 573.149Z" fill="#9AC400"/>
<path fill-rule="evenodd" clip-rule="evenodd" d="M250.789 514.777L255.536 464.634L311.653 398.93L235.543 451.967L250.789 514.777Z" fill="#7B9C00"/>
<path fill-rule="evenodd" clip-rule="evenodd" d="M60.45 382.291L106.035 361.156L149.49 285.382L125.682 375.042L60.45 382.291Z" fill="#7B9C00"/>
<path fill-rule="evenodd" clip-rule="evenodd" d="M332.188 117.406C355.288 107.028 379.749 99.642 404.406 94.8735C404.244 93.9052 404.076 92.9376 403.904 91.9701C372.147 92.4229 340.798 99.2144 311.891 112.01C318.717 113.351 325.498 115.148 332.188 117.406Z" fill="#B8D54D"/>
<path fill-rule="evenodd" clip-rule="evenodd" d="M232.013 197.932C256.002 163.672 288.365 138.529 324.472 121.009C317.469 118.86 310.377 117.21 303.248 116.051C269.776 132.552 239.981 157.349 217.194 189.893C182.218 239.844 100.784 372.585 146.486 428.926C148.045 430.107 149.403 431.32 150.62 432.534C150.118 431.164 149.686 429.565 149.32 427.678C136.892 363.594 201.786 241.101 232.013 197.932Z" fill="#B8D54D"/>
<path fill-rule="evenodd" clip-rule="evenodd" d="M361.49 287.989C330.251 332.603 239.094 442.57 171.956 446.997C245.383 475.119 339.753 351.097 375.338 300.276C398.282 267.509 412.343 231.532 416.768 194.05C413.37 188.225 409.582 182.582 405.414 177.163C399.748 216.253 385.183 254.151 361.49 287.989Z" fill="#7B9C00"/>
<path fill-rule="evenodd" clip-rule="evenodd" d="M404.406 94.8734C408.539 119.537 409.24 144.515 406.454 169.103C410.531 174.143 414.269 179.389 417.661 184.806C419.885 155.281 416.167 124.919 406.144 94.5418C405.565 94.6507 404.986 94.7613 404.406 94.8734Z" fill="#7B9C00"/>
<path d="M285.238 260.834C304.541 274.35 330.483 270.605 343.181 252.47C355.879 234.336 350.525 208.678 331.222 195.162C311.92 181.646 285.978 185.39 273.28 203.525C260.582 221.66 265.936 247.318 285.238 260.834Z" fill="#EEEEEE"/>
<path d="M224.182 348.031C237.005 357.01 254.287 354.451 262.784 342.316C271.281 330.181 267.775 313.066 254.952 304.087C242.13 295.109 224.847 297.668 216.35 309.802C207.853 321.937 211.359 339.053 224.182 348.031Z" fill="#EEEEEE"/>
<path fill-rule="evenodd" clip-rule="evenodd" d="M335.557 230.169C329.6 197.493 294.144 193.232 284.814 226.656C300.231 204.382 316.864 201.151 335.557 230.169Z" fill="#FEFEFE"/>
<path fill-rule="evenodd" clip-rule="evenodd" d="M254.403 322.835C251.121 304.84 231.595 302.493 226.457 320.9C234.948 308.633 244.108 306.854 254.403 322.835Z" fill="#FEFEFE"/>
<path fill-rule="evenodd" clip-rule="evenodd" d="M260.911 573.149C294.196 549.613 321.118 453.1 311.653 398.93L308.422 401.181C312.053 454.645 288.593 534.748 259.312 559.791C259.975 564.468 260.508 568.911 260.911 573.149Z" fill="#B8D54D"/>
<path fill-rule="evenodd" clip-rule="evenodd" d="M2.59177 393.058C13.3236 353.73 94.8087 295.422 148.949 285.789L147.939 289.595C96.4569 304.469 29.2088 353.911 15.6903 389.992C11.0689 390.968 6.71185 391.986 2.59177 393.058Z" fill="#B8D54D"/>
<path d="M180.612 499.75C169.712 530.749 134.374 539.806 134.374 539.806C142.582 526.601 137.229 505.545 137.229 505.545C98.3293 549.441 68.5393 538.209 68.5393 538.209C61.9463 510.203 109.749 473.069 109.749 473.069C96.9013 476.638 82.9833 469.143 82.9833 469.143C93.5703 434.734 116.719 436.211 120.041 436.61C114.676 435.914 58.5583 429.821 48.3663 478.065C48.3663 478.065 66.9243 486.63 85.1253 483.418C85.1253 483.418 28.0243 525.53 36.9463 570.854C36.9463 570.854 74.7753 580.133 126.523 524.816C126.523 524.816 94.0473 565.144 94.0473 575.136C94.0473 575.136 166.46 562.249 180.612 499.75Z" fill="#E56353"/>
<path d="M177.697 502.269C180.824 493.378 181.944 482.685 179.638 469.878C180.682 481.936 179.868 492.68 177.697 502.269Z" fill="#FCD462"/>
<path d="M117.125 439.13C117.396 439.165 117.54 439.187 117.54 439.187C117.54 439.187 117.387 439.161 117.125 439.13Z" fill="#FCD462"/>
<path d="M80.0682 471.662C80.0682 471.662 93.9862 479.157 106.834 475.588C106.834 475.588 59.0312 512.722 65.6242 540.728C65.6242 540.728 95.4142 551.96 134.314 508.064C134.314 508.064 139.667 529.12 131.459 542.325C131.459 542.325 166.798 533.268 177.697 502.269C179.868 492.68 180.682 481.935 179.638 469.878C169.289 498.072 149.66 511.276 149.66 511.276C160.723 481.655 152.872 474.517 152.872 474.517C131.102 508.421 108.502 502.237 108.502 502.237C108.385 482.849 133.957 462.74 133.957 462.74C128.961 466.309 103.979 463.454 103.979 463.454C104.693 448.465 117.54 439.186 117.54 439.186C117.54 439.186 117.396 439.165 117.125 439.129C113.803 438.731 90.6552 437.253 80.0682 471.662Z" fill="#FCD462"/>
</svg>
